<?xml version="1.0" encoding="UTF-8" standalone="no"?>
<!DOCTYPE svg PUBLIC "-//W3C//DTD SVG 1.1//EN" "http://www.w3.org/Graphics/SVG/1.1/DTD/svg11.dtd">
<svg width="100%" height="100%" viewBox="0 0 32 32" version="1.1" xmlns="http://www.w3.org/2000/svg" xmlns:xlink="http://www.w3.org/1999/xlink" xml:space="preserve" xmlns:serif="http://www.serif.com/" style="fill-rule:evenodd;clip-rule:evenodd;stroke-linejoin:round;stroke-miterlimit:2;">
    <g id="search" transform="matrix(0.86961,0,0,0.86961,4.6942,2.95629)">
        <path d="M18,13C18,9.141 14.859,6 11,6C7.141,6 4,9.141 4,13C4,16.859 7.141,20 11,20C14.859,20 18,16.859 18,13ZM26,26C26,27.094 25.094,28 24,28C23.469,28 22.953,27.781 22.594,27.406L17.235,22.062C15.407,23.328 13.219,23.999 11.001,23.999C4.923,23.999 0.001,19.077 0.001,12.999C0.001,6.921 4.923,1.999 11.001,1.999C17.079,1.999 22.001,6.921 22.001,12.999C22.001,15.218 21.329,17.405 20.064,19.233L25.423,24.592C25.782,24.951 26.001,25.467 26.001,25.998L26,26Z" style="fill:rgb(23,29,37);fill-rule:nonzero;"/>
    </g>
</svg>
