<?xml version="1.0" encoding="UTF-8" standalone="no"?>
<!DOCTYPE svg PUBLIC "-//W3C//DTD SVG 1.1//EN" "http://www.w3.org/Graphics/SVG/1.1/DTD/svg11.dtd">
<svg width="100%" height="100%" viewBox="0 0 28 24" version="1.1" xmlns="http://www.w3.org/2000/svg" xmlns:xlink="http://www.w3.org/1999/xlink" xml:space="preserve" xmlns:serif="http://www.serif.com/" style="fill-rule:evenodd;clip-rule:evenodd;stroke-linejoin:round;stroke-miterlimit:2;">
    <g id="heart-o" transform="matrix(1,0,0,1,0.001,-1.999)">
        <path d="M26,9.312C26,4.921 23.031,3.999 20.531,3.999C18.203,3.999 15.578,6.515 14.765,7.483C14.39,7.936 13.609,7.936 13.234,7.483C12.422,6.514 9.797,3.999 7.468,3.999C4.968,3.999 1.999,4.921 1.999,9.312C1.999,12.171 4.89,14.828 4.921,14.859L13.999,23.609L23.062,14.875C23.109,14.828 26,12.172 26,9.312ZM28,9.312C28,13.062 24.563,16.203 24.422,16.343L14.688,25.718C14.501,25.905 14.25,25.999 14,25.999C13.75,25.999 13.5,25.905 13.312,25.718L3.562,16.312C3.437,16.203 -0.001,13.062 -0.001,9.312C-0.001,4.734 2.796,1.999 7.468,1.999C10.202,1.999 12.765,4.155 13.999,5.374C15.233,4.155 17.796,1.999 20.53,1.999C25.202,1.999 27.999,4.733 27.999,9.312L28,9.312Z" style="fill:white;fill-rule:nonzero;"/>
    </g>
</svg>
