<?xml version="1.0" encoding="UTF-8" standalone="no"?>
<!DOCTYPE svg PUBLIC "-//W3C//DTD SVG 1.1//EN" "http://www.w3.org/Graphics/SVG/1.1/DTD/svg11.dtd">
<svg width="100%" height="100%" viewBox="0 0 25 16" version="1.1" xmlns="http://www.w3.org/2000/svg" xmlns:xlink="http://www.w3.org/1999/xlink" xml:space="preserve" xmlns:serif="http://www.serif.com/" style="fill-rule:evenodd;clip-rule:evenodd;stroke-linejoin:round;stroke-miterlimit:2;">
    <g id="gamepad" transform="matrix(0.0615244,0,0,0.0615244,-3.24994,-7.74857)">
        <path d="M155.084,125.945C154.624,125.945 154.158,125.955 153.687,125.979C148.041,126.264 141.59,128.443 132.98,134.183C111.156,148.733 81.068,194.578 65.146,244.188C49.226,293.798 47.1,346.438 71.082,377.154C75.224,382.46 84.469,386.084 94.838,386C105.054,385.916 115.52,382.162 121.32,376.56C122.342,375.09 130.616,363.224 142.71,349.156C155.573,334.196 171.426,317.47 188.545,310.379C230.408,293.039 281.569,293.039 323.432,310.379C340.55,317.471 356.402,334.197 369.266,349.157C381.361,363.225 389.636,375.09 390.656,376.561C396.456,382.163 406.923,385.917 417.139,386.001C427.507,386.086 436.751,382.461 440.894,377.155C464.867,346.451 462.779,293.58 446.872,243.868C430.965,194.155 400.818,148.342 379.089,134.244C367.591,126.784 359.891,125.514 352.804,126.604C345.716,127.697 338.457,131.801 329.938,137.674C312.9,149.42 291.04,167.694 255.986,167.694C220.774,167.694 198.871,149.18 181.856,137.338C173.351,131.418 166.126,127.313 159.113,126.26C157.798,126.062 156.463,125.948 155.083,125.943L155.084,125.945ZM367.988,174.695C376.765,174.695 383.988,181.918 383.988,190.695C383.988,199.472 376.765,206.695 367.988,206.695C359.211,206.695 351.988,199.472 351.988,190.695C351.988,181.918 359.211,174.695 367.988,174.695ZM135,183L153,183L153,215L185,215L185,233L153,233L153,265L135,265L135,233L103,233L103,215L135,215L135,183ZM335.988,206.695C344.765,206.695 351.988,213.918 351.988,222.695C351.988,231.472 344.765,238.695 335.988,238.695C327.211,238.695 319.988,231.472 319.988,222.695C319.988,213.918 327.211,206.695 335.988,206.695ZM399.988,206.695C408.765,206.695 415.988,213.918 415.988,222.695C415.988,231.472 408.765,238.695 399.988,238.695C391.211,238.695 383.988,231.472 383.988,222.695C383.988,213.918 391.211,206.695 399.988,206.695ZM367.988,238.695C376.765,238.695 383.988,245.918 383.988,254.695C383.988,263.472 376.765,270.695 367.988,270.695C359.211,270.695 351.988,263.472 351.988,254.695C351.988,245.918 359.211,238.695 367.988,238.695ZM207.988,245.695L239.988,245.695L239.988,263.695L207.988,263.695L207.988,245.695ZM271.988,245.695L299.885,245.695L299.885,263.695L271.988,263.695L271.988,245.695Z" style="fill:white;fill-rule:nonzero;"/>
    </g>
</svg>
